<svg width="128" height="128" viewBox="0 0 128 128" fill="none" xmlns="http://www.w3.org/2000/svg">
  <rect width="128" height="128" rx="24" fill="url(#paint0_linear)"/>
  <path d="M64 104C86.0914 104 104 86.0914 104 64C104 41.9086 86.0914 24 64 24C41.9086 24 24 41.9086 24 64C24 86.0914 41.9086 104 64 104Z" fill="white"/>
  <path d="M64 96C81.6731 96 96 81.6731 96 64C96 46.3269 81.6731 32 64 32C46.3269 32 32 46.3269 32 64C32 81.6731 46.3269 96 64 96Z" fill="url(#paint1_radial)"/>
  <path d="M64 80C72.8366 80 80 72.8366 80 64C80 55.1634 72.8366 48 64 48C55.1634 48 48 55.1634 48 64C48 72.8366 55.1634 80 64 80Z" fill="white"/>
  <defs>
    <linearGradient id="paint0_linear" x1="0" y1="0" x2="128" y2="128" gradientUnits="userSpaceOnUse">
      <stop stop-color="#FF6B6B"/>
      <stop offset="1" stop-color="#4ECDC4"/>
    </linearGradient>
    <radialGradient id="paint1_radial" cx="0" cy="0" r="1" gradientUnits="userSpaceOnUse" gradientTransform="translate(64 64) rotate(90) scale(32)">
      <stop stop-color="#FF6B6B"/>
      <stop offset="0.33" stop-color="#FFD93D"/>
      <stop offset="0.66" stop-color="#6BCB77"/>
      <stop offset="1" stop-color="#4ECDC4"/>
    </radialGradient>
  </defs>
</svg>